<?xml version="1.0" standalone="no"?>
<!DOCTYPE svg PUBLIC "-//W3C//DTD SVG 20010904//EN"
 "http://www.w3.org/TR/2001/REC-SVG-20010904/DTD/svg10.dtd">
<svg version="1.0" xmlns="http://www.w3.org/2000/svg"
 width="1000.000000pt" height="1000.000000pt" viewBox="0 0 1000.000000 1000.000000"
 preserveAspectRatio="xMidYMid meet">

<g transform="translate(0.000000,1000.000000) scale(0.100000,-0.100000)"
fill="#000000" stroke="none">
<path d="M3690 9469 c-497 -20 -1031 -67 -1532 -136 l-198 -27 0 -4147 0
-4146 38 -6 c76 -12 485 -47 722 -62 543 -33 1269 -45 1635 -25 857 46 1551
191 2159 452 l118 50 157 -156 156 -156 645 0 645 0 -403 403 -403 403 86 74
c119 101 308 300 424 444 610 762 931 1781 931 2961 0 1082 -271 1951 -826
2650 -111 140 -407 435 -546 545 -60 46 -108 87 -108 90 0 4 124 139 275 301
l275 294 -611 3 -611 2 -77 -81 -76 -81 -180 61 c-722 243 -1575 335 -2695
290z m905 -859 c346 -18 641 -59 921 -130 169 -43 347 -101 346 -113 -1 -4
-619 -673 -1375 -1485 -755 -812 -1387 -1493 -1405 -1512 l-31 -35 -1 1586 0
1586 123 21 c426 75 954 105 1422 82z m2137 -726 c84 -69 261 -250 341 -349
380 -470 594 -1067 648 -1810 15 -203 6 -718 -16 -915 -58 -532 -176 -963
-372 -1353 -151 -301 -350 -575 -569 -779 l-50 -47 -875 877 c-480 482 -1060
1064 -1287 1292 l-413 416 1267 1352 c696 744 1269 1352 1274 1352 4 0 28 -16
52 -36z m-2042 -4508 c683 -686 1238 -1252 1233 -1256 -14 -13 -231 -96 -352
-134 -239 -75 -502 -130 -811 -169 -161 -20 -218 -22 -725 -22 -542 0 -693 7
-935 43 l-45 7 -3 1590 -2 1590 199 -200 c109 -110 757 -762 1441 -1449z"/>
</g>
</svg>
